# xmcd
#
# Track frame offsets: 
#        187
#        25102
#        46730
#        68660
#        84330
#        107082
#        125107
#        145412
#        166100
#        188655
#        212262
#        233470
#        256135
#        278617
#        300217
#
# Disc length: 4300 seconds
#
# Revision: 8
# Processed by: cddbd v1.5.2PL0 Copyright (c) Steve Scherf et al.
# Submitted via: ExactAudioCopy v0.99pb5
#
DISCID=b210ca0f
DTITLE=Boyz II Men - EVOLUTION
DYEAR=1997
DGENRE=R&B
TTITLE0=Doin' Just Fine
TTITLE1=Never
TTITLE2=4 Seasons Of Loneliness
TTITLE3=Girl In The Life Magazine
TTITLE4=A Song For Mama
TTITLE5=Can You Stand The Rain
TTITLE6=Can't Let Her Go
TTITLE7=Baby C'mon
TTITLE8=Come On
TTITLE9=All Night Long
TTITLE10=Human II (Don't Turn Your Back On Me)
TTITLE11=To The Limit
TTITLE12=Dear God
TTITLE13=Just Hold On
TTITLE14=I Can Love You
EXTD=YEAR: 1997
EXTT0=
EXTT1=
EXTT2=
EXTT3=
EXTT4=
EXTT5=
EXTT6=
EXTT7=
EXTT8=
EXTT9=
EXTT10=(DON'T TURN YOUR BACK ON ME)
EXTT11=
EXTT12=
EXTT13=
EXTT14=
PLAYORDER=
